<?xml version="1.0" encoding="UTF-8"?>
<svg width="362px" height="226px" viewBox="0 0 362 226" version="1.1" xmlns="http://www.w3.org/2000/svg" xmlns:xlink="http://www.w3.org/1999/xlink">
    <!-- Generator: Sketch 63.1 (92452) - https://sketch.com -->
    <title>boat</title>
    <desc>Created with Sketch.</desc>
    <g id="Page-1" stroke="none" stroke-width="1" fill="none" fill-rule="evenodd">
        <g id="boat" fill="#FFFFFF" fill-rule="nonzero">
            <path d="M361.6,110.8 C360,108.8 357.6,107.2 355.2,107.2 L280.4,107.2 L230,49.2 C228.8,48 227.2,47.2 225.6,47.2 L165.6,47.2 C165.6,46.8 165.6,46.4 165.2,46 L142.8,3.6 C141.6,1.6 139.6,0.4 137.6,0.4 L107.6,0.4 C104.4,0.4 101.6,3.2 101.6,6.4 L101.6,46.8 L77.6,46.8 C75.6,46.8 73.6,48 72.4,49.6 L38.4,106.8 L20.8,106.8 C17.6,106.8 14.8,109.2 14.8,112.8 C14.8,114 14.4,137.2 24,158 C19.2,156 13.2,154.8 6,154.8 C2.8,154.8 0,157.6 0,160.8 C0,164 2.8,166.8 6,166.8 C19.2,166.8 25.6,171.6 33.2,177.6 C41.2,183.6 50,190.8 67.6,190.8 C68.4,190.8 69.2,190.8 70,190.8 C71.2,190.8 72,190.8 73.2,190.8 C74,190.8 74.8,190.4 75.6,190 C88,188.4 95.2,182.4 102,177.6 C109.2,172 115.6,166.8 129.2,166.8 C142.4,166.8 148.8,171.6 156.4,177.6 C164.4,183.6 173.2,190.8 190.8,190.8 C208.4,190.8 217.2,183.6 225.2,177.6 C232.4,172 238.8,166.8 252.4,166.8 C265.6,166.8 272,171.6 279.6,177.6 C287.6,183.6 296.4,190.8 314,190.8 C317.2,190.8 320,188 320,184.8 C320,181.6 317.2,178.8 314,178.8 C309.6,178.8 306,178.4 302.8,177.2 L360.4,117.2 C362,115.6 362.4,112.8 361.6,110.8 Z M142.4,29.2 L152,47.6 L113.6,47.6 L113.6,29.2 L142.4,29.2 Z M113.2,12.8 L133.6,12.8 L136,17.2 L113.2,17.2 L113.2,12.8 Z M81.2,59.2 L222.8,59.2 L241.6,80.8 L68,80.8 L81.2,59.2 Z M61.2,92.8 L252,92.8 L264.8,107.2 L52.4,107.2 L61.2,92.8 Z M290.8,172 C289.2,170.8 287.6,169.6 286,168.4 C278,162.4 269.2,155.2 251.6,155.2 C234,155.2 225.2,162.4 217.2,168.4 C210,174 203.6,179.2 190,179.2 C176.8,179.2 170.4,174.4 162.8,168.4 C154.8,162.4 146,155.2 128.4,155.2 C111.2,155.2 102,162.4 94,168.4 C87.2,173.6 81.2,178.4 69.6,178.8 C59.2,178.4 50.8,174.4 44,167.6 C30.4,153.6 27.2,130 26.4,119.2 L340.8,119.2 L290.8,172 Z" id="Shape"></path>
            <path d="M314,213.6 C300.8,213.6 294.4,208.8 286.8,202.8 C278.8,196.8 270,189.6 252.4,189.6 C234.8,189.6 226,196.8 218,202.8 C210.8,208.4 204.4,213.6 190.8,213.6 C177.6,213.6 171.2,208.8 163.6,202.8 C155.6,196.8 146.8,189.6 129.2,189.6 C112,189.6 102.8,196.8 94.8,202.8 C87.6,208.4 81.2,213.6 67.6,213.6 C54.4,213.6 48,208.8 40.4,202.8 C32.4,196.8 23.6,189.6 6,189.6 C2.8,189.6 0,192.4 0,195.6 C0,198.8 2.8,201.6 6,201.6 C19.2,201.6 25.6,206.4 33.2,212.4 C41.2,218.8 50.4,225.6 67.6,225.6 C84.8,225.6 94,218.4 102,212.4 C109.2,206.8 115.6,201.6 129.2,201.6 C142.4,201.6 148.8,206.4 156.4,212.4 C164.4,218.4 173.2,225.6 190.8,225.6 C208.4,225.6 217.2,218.4 225.2,212.4 C232.4,206.8 238.8,201.6 252.4,201.6 C265.6,201.6 272,206.4 279.6,212.4 C287.6,218.4 296.4,225.6 314,225.6 C317.2,225.6 320,222.8 320,219.6 C320,216.4 317.2,213.6 314,213.6 Z" id="Path"></path>
        </g>
    </g>
</svg>