<?xml version="1.0" encoding="UTF-8"?>
<svg width="512px" height="512px" viewBox="0 0 512 512" version="1.1" xmlns="http://www.w3.org/2000/svg" xmlns:xlink="http://www.w3.org/1999/xlink">
    <!-- Generator: Sketch 63.1 (92452) - https://sketch.com -->
    <title>clock</title>
    <desc>Created with Sketch.</desc>
    <g id="Page-1" stroke="none" stroke-width="1" fill="none" fill-rule="evenodd">
        <g id="clock" fill="#FFFFFF" fill-rule="nonzero">
            <path d="M497.003,241.001 C488.719,241.001 482.003,247.717 482.003,256.001 C482.003,380.618 380.619,482.001 256.003,482.001 C131.386,482.001 30.003,380.618 30.003,256.001 C30.003,131.384 131.386,30.001 256.003,30.001 C294.002,30.001 330.965,39.436 363.962,57.414 L345.209,76.167 C340.919,80.457 339.636,86.908 341.957,92.514 C344.279,98.119 349.748,101.774 355.815,101.774 L427.588,101.774 C435.872,101.774 442.588,95.058 442.588,86.774 L442.588,15.001 C442.588,8.934 438.934,3.465 433.328,1.143 C427.721,-1.18 421.27,0.104 416.981,4.395 L385.964,35.412 C346.675,12.215 302.005,6.15871312e-05 256.002,6.15871312e-05 C187.622,6.15871312e-05 123.334,26.631 74.982,74.982 C26.63,123.335 0.002,187.622 0.002,256.002 C0.002,324.382 26.63,388.669 74.982,437.021 C123.335,485.374 187.622,512.003 256.002,512.003 C324.382,512.003 388.669,485.374 437.021,437.021 C485.374,388.669 512.001,324.382 512.001,256.002 C512.001,247.717 505.287,241.001 497.003,241.001 Z" id="Path"></path>
            <path d="M352.402,241.001 L271.003,241.001 L271.003,159.601 C271.003,151.317 264.287,144.601 256.003,144.601 C247.719,144.601 241.003,151.317 241.003,159.601 L241.003,256.001 C241.003,264.285 247.719,271.001 256.003,271.001 L352.402,271.001 C360.686,271.001 367.402,264.285 367.402,256.001 C367.402,247.717 360.686,241.001 352.402,241.001 Z" id="Path"></path>
        </g>
    </g>
</svg>