<?xml version="1.0" encoding="UTF-8"?>
<svg width="470px" height="470px" viewBox="0 0 470 470" version="1.1" xmlns="http://www.w3.org/2000/svg" xmlns:xlink="http://www.w3.org/1999/xlink">
    <!-- Generator: Sketch 63.1 (92452) - https://sketch.com -->
    <title>cpu</title>
    <desc>Created with Sketch.</desc>
    <g id="Page-1" stroke="none" stroke-width="1" fill="none" fill-rule="evenodd">
        <g id="cpu" fill="#FFFFFF" fill-rule="nonzero">
            <path d="M458.667,181.333 C464.563,181.333 469.334,176.562 469.334,170.666 C469.334,164.77 464.563,160 458.667,160 L426.667,160 L426.667,117.333 L458.667,117.333 C464.563,117.333 469.334,112.562 469.334,106.666 C469.334,100.77 464.563,96 458.667,96 L426.667,96 L426.667,85.333 C426.667,61.802 407.532,42.666 384,42.666 L373.333,42.666 L373.333,10.666 C373.333,4.771 368.563,0 362.667,0 C356.771,0 352,4.771 352,10.667 L352,42.667 L309.333,42.667 L309.333,10.667 C309.333,4.771 304.562,0 298.667,0 C292.772,0 288,4.771 288,10.667 L288,42.667 L245.333,42.667 L245.333,10.667 C245.333,4.771 240.562,0 234.667,0 C228.772,0 224,4.771 224,10.667 L224,42.667 L181.333,42.667 L181.333,10.667 C181.333,4.771 176.562,0 170.667,0 C164.772,0 160,4.771 160,10.667 L160,42.667 L117.333,42.667 L117.333,10.667 C117.333,4.771 112.562,0 106.667,0 C100.772,0 96,4.771 96,10.667 L96,42.667 L85.333,42.667 C61.802,42.667 42.666,61.802 42.666,85.334 L42.666,96 L10.666,96 C4.771,96 0,100.771 0,106.667 C0,112.563 4.771,117.334 10.667,117.334 L42.667,117.334 L42.667,160 L10.667,160 C4.771,160 0,164.771 0,170.667 C0,176.563 4.771,181.334 10.667,181.334 L42.667,181.334 L42.667,224 L10.667,224 C4.771,224 0,228.771 0,234.667 C0,240.563 4.771,245.334 10.667,245.334 L42.667,245.334 L42.667,288 L10.667,288 C4.771,288 0,292.771 0,298.667 C0,304.563 4.771,309.334 10.667,309.334 L42.667,309.334 L42.667,352 L10.667,352 C4.771,352 0,356.771 0,362.667 C0,368.563 4.771,373.334 10.667,373.334 L42.667,373.334 L42.667,384 C42.667,407.531 61.802,426.667 85.334,426.667 L96,426.667 L96,458.667 C96,464.563 100.771,469.334 106.667,469.334 C112.563,469.334 117.334,464.563 117.334,458.667 L117.334,426.667 L160,426.667 L160,458.667 C160,464.563 164.771,469.334 170.667,469.334 C176.563,469.334 181.334,464.563 181.334,458.667 L181.334,426.667 L224,426.667 L224,458.667 C224,464.563 228.771,469.334 234.667,469.334 C240.563,469.334 245.334,464.563 245.334,458.667 L245.334,426.667 L288,426.667 L288,458.667 C288,464.563 292.771,469.334 298.667,469.334 C304.563,469.334 309.334,464.563 309.334,458.667 L309.334,426.667 L352,426.667 L352,458.667 C352,464.563 356.771,469.334 362.667,469.334 C368.563,469.334 373.334,464.563 373.334,458.667 L373.334,426.667 L384,426.667 C407.531,426.667 426.667,407.532 426.667,384 L426.667,373.333 L458.667,373.333 C464.563,373.333 469.334,368.562 469.334,362.666 C469.334,356.77 464.563,351.999 458.667,351.999 L426.667,351.999 L426.667,309.332 L458.667,309.332 C464.563,309.332 469.334,304.561 469.334,298.665 C469.334,292.769 464.563,288 458.667,288 L426.667,288 L426.667,245.333 L458.667,245.333 C464.563,245.333 469.334,240.562 469.334,234.666 C469.334,228.77 464.563,224 458.667,224 L426.667,224 L426.667,181.333 L458.667,181.333 Z M405.333,384 C405.333,395.76 395.76,405.333 384,405.333 L85.333,405.333 C73.573,405.333 64,395.76 64,384 L64,85.333 C64,73.573 73.573,64 85.333,64 L384,64 C395.76,64 405.333,73.573 405.333,85.333 L405.333,384 L405.333,384 Z" id="Shape"></path>
            <path d="M373.333,85.333 L96,85.333 C90.104,85.333 85.333,90.104 85.333,96 L85.333,373.333 C85.333,379.229 90.104,384 96,384 L373.333,384 C379.229,384 384,379.229 384,373.333 L384,96 C384,90.104 379.229,85.333 373.333,85.333 Z M362.667,362.667 L106.667,362.667 L106.667,106.667 L362.667,106.667 L362.667,362.667 Z" id="Shape"></path>
        </g>
    </g>
</svg>