<?xml version="1.0" encoding="UTF-8"?>
<svg width="512px" height="434px" viewBox="0 0 512 434" version="1.1" xmlns="http://www.w3.org/2000/svg" xmlns:xlink="http://www.w3.org/1999/xlink">
    <!-- Generator: Sketch 63.1 (92452) - https://sketch.com -->
    <title>dashboard</title>
    <desc>Created with Sketch.</desc>
    <g id="Page-1" stroke="none" stroke-width="1" fill="none" fill-rule="evenodd">
        <g id="dashboard" fill="#FFFFFF" fill-rule="nonzero">
            <path d="M255.992,0.586 C255.778,0.586 255.561,0.586 255.347,0.586 C178.27,0.779 106.117,35.21 57.39,95.05 C54.775,98.262 55.258,102.986 58.47,105.601 C61.682,108.217 66.407,107.732 69.022,104.521 C113.966,49.327 180.078,17.115 250.974,15.659 L250.974,39.373 C195.187,40.624 142.887,62.681 103.239,101.804 C62.395,142.107 39.491,196.057 38.746,253.717 C38.534,270.084 40.149,286.424 43.545,302.282 C44.301,305.812 43.435,309.444 41.169,312.246 C38.909,315.042 35.549,316.645 31.952,316.645 C26.39,316.645 21.514,312.733 20.359,307.344 C16.803,290.765 15,273.688 15,256.586 C15,212.028 27.252,168.507 50.433,130.729 C52.599,127.199 51.494,122.581 47.963,120.414 C44.432,118.247 39.815,119.355 37.648,122.884 C13.018,163.024 0,209.257 0,256.586 C0,274.743 1.915,292.879 5.691,310.489 C8.319,322.747 19.363,331.645 31.951,331.645 C40.1,331.645 47.711,328.012 52.832,321.677 C57.959,315.335 59.92,307.121 58.211,299.141 C55.049,284.376 53.546,269.159 53.744,253.911 C54.438,200.222 75.757,149.995 113.774,112.481 C151.788,74.97 202.298,54.313 256,54.313 C367.534,54.313 458.273,145.053 458.273,256.586 C458.273,270.934 456.762,285.259 453.783,299.164 C452.076,307.131 454.034,315.335 459.157,321.671 C464.281,328.01 471.896,331.645 480.049,331.645 C492.635,331.645 503.679,322.749 506.308,310.494 C510.263,292.055 512.173,273.06 511.988,254.037 C510.623,114.148 395.847,0.586 255.992,0.586 Z M491.642,307.348 C490.486,312.735 485.611,316.645 480.049,316.645 C476.448,316.645 473.085,315.04 470.822,312.241 C468.561,309.444 467.697,305.823 468.45,302.306 C471.65,287.37 473.273,271.988 473.273,256.586 C473.273,198.55 450.673,143.988 409.635,102.951 C370.957,64.273 320.264,41.982 265.973,39.545 L265.973,15.81 C393.058,21.052 495.735,125.846 496.988,254.183 C497.163,272.102 495.364,289.989 491.642,307.348 L491.642,307.348 Z" id="Shape"></path>
            <path d="M256,188.561 C252.918,188.561 250.15,190.446 249.021,193.314 C244.278,205.365 220.615,266.292 220.615,282.304 C220.615,301.815 236.489,317.689 256,317.689 C275.511,317.689 291.385,301.815 291.385,282.304 C291.385,266.292 267.722,205.365 262.979,193.314 C261.85,190.446 259.082,188.561 256,188.561 L256,188.561 Z M256,302.688 C244.76,302.688 235.615,293.543 235.615,282.303 C235.615,274.179 246.305,242.963 256,217.023 C265.695,242.96 276.385,274.177 276.385,282.303 C276.385,293.543 267.24,302.688 256,302.688 Z" id="Shape"></path>
            <path d="M258.474,85.469 C162.545,85.469 84.501,163.513 84.501,259.441 C84.501,355.369 162.545,433.414 258.474,433.414 C309.708,433.414 358.106,410.976 391.259,371.851 C393.937,368.691 393.546,363.958 390.385,361.28 C387.225,358.603 382.492,358.994 379.814,362.154 C378.367,363.862 376.878,365.524 375.368,367.162 L367.024,358.818 C364.157,355.95 359.509,355.951 356.642,358.818 C353.775,361.685 353.775,366.333 356.642,369.2 L364.938,377.497 C352.864,388.394 339.278,397.299 324.677,403.988 L320.323,393.406 C318.78,389.656 314.49,387.87 310.74,389.41 C306.991,390.953 305.202,395.243 306.744,398.992 L311.056,409.473 C296.243,414.662 280.607,417.669 264.605,418.283 L264.605,407.323 C264.605,403.269 261.318,399.982 257.264,399.982 C253.21,399.982 249.923,403.269 249.923,407.323 L249.923,418.183 C233.533,417.31 217.797,413.941 203.083,408.454 L207.126,398.758 C208.686,395.016 206.918,390.717 203.176,389.157 C199.433,387.597 195.135,389.365 193.575,393.107 L189.576,402.697 C175.346,395.826 162.295,386.889 150.801,376.288 L157.888,369.2 C160.755,366.333 160.755,361.685 157.888,358.818 C155.021,355.95 150.373,355.951 147.506,358.818 L140.471,365.853 C129.861,354.099 120.983,340.756 114.231,326.231 L123.301,322.499 C127.05,320.956 128.839,316.666 127.297,312.916 C125.754,309.167 121.464,307.379 117.714,308.921 L108.667,312.644 C103.521,298.197 100.407,282.796 99.675,266.783 L109.384,266.783 C113.438,266.783 116.725,263.496 116.725,259.442 C116.725,255.388 113.438,252.101 109.384,252.101 L99.675,252.101 C100.418,235.828 103.619,220.186 108.915,205.537 L117.95,209.305 C118.874,209.69 119.831,209.872 120.773,209.872 C123.647,209.872 126.376,208.173 127.551,205.354 C129.111,201.612 127.343,197.313 123.601,195.753 L114.547,191.978 C121.26,177.715 130.026,164.603 140.472,153.031 L147.507,160.066 C148.94,161.5 150.819,162.216 152.698,162.216 C154.577,162.216 156.455,161.499 157.889,160.066 C160.756,157.199 160.756,152.551 157.889,149.684 L150.801,142.596 C162.477,131.828 175.762,122.783 190.254,115.869 L194.208,125.478 C195.375,128.314 198.113,130.027 201,130.027 C201.931,130.027 202.877,129.849 203.791,129.473 C207.54,127.93 209.329,123.64 207.786,119.89 L203.784,110.163 C218.296,104.83 233.796,101.559 249.925,100.7 L249.925,111.561 C249.925,115.615 253.212,118.902 257.266,118.902 C261.32,118.902 264.607,115.615 264.607,111.561 L264.607,100.599 C281.429,101.241 297.591,104.5 312.692,109.995 L308.848,119.215 C307.277,122.981 309.058,127.308 312.825,128.878 C313.754,129.266 314.718,129.449 315.666,129.449 C318.559,129.449 321.306,127.739 322.489,124.901 L326.327,115.697 C340.666,122.493 353.836,131.365 365.438,141.935 L358.409,148.964 C355.523,151.85 355.523,156.528 358.409,159.413 C359.852,160.856 361.743,161.577 363.634,161.577 C365.525,161.577 367.416,160.855 368.859,159.413 L375.891,152.381 C386.64,164.159 395.637,177.558 402.486,192.158 L393.223,195.969 C389.449,197.522 387.649,201.84 389.201,205.614 C390.376,208.468 393.131,210.193 396.037,210.193 C396.974,210.193 397.926,210.013 398.846,209.636 L408.131,205.816 C413.35,220.337 416.513,235.827 417.265,251.94 L409.557,251.94 C405.415,251.94 402.057,255.298 402.057,259.44 C402.057,263.582 405.415,266.94 409.557,266.94 L417.25,266.94 C416.487,283.144 413.263,299.1 407.724,314.224 L396.583,309.578 C392.843,308.018 388.543,309.786 386.982,313.529 C385.422,317.271 387.19,321.569 390.933,323.13 L402.034,327.759 C400.272,331.461 398.383,335.106 396.332,338.667 C394.265,342.256 395.499,346.842 399.088,348.909 C402.676,350.975 407.262,349.743 409.33,346.153 C424.454,319.896 432.448,289.911 432.448,259.44 C432.448,163.512 354.402,85.469 258.474,85.469 L258.474,85.469 Z" id="Path"></path>
        </g>
    </g>
</svg>