<?xml version="1.0" encoding="UTF-8"?>
<svg width="473px" height="424px" viewBox="0 0 473 424" version="1.1" xmlns="http://www.w3.org/2000/svg" xmlns:xlink="http://www.w3.org/1999/xlink">
    <!-- Generator: Sketch 63.1 (92452) - https://sketch.com -->
    <title>dragon</title>
    <desc>Created with Sketch.</desc>
    <g id="Page-1" stroke="none" stroke-width="1" fill="none" fill-rule="evenodd">
        <g id="dragon" fill="#FFFFFF" fill-rule="nonzero">
            <path d="M168,312.004 L168,296.004 L40,296.004 C26.768,296.004 16,285.236 16,272.004 C16,258.772 26.768,248.004 40,248.004 L127.096,248.004 C139.232,248.004 149.792,239.412 151.664,228.02 C152.832,220.996 150.872,213.876 146.304,208.5 C141.728,203.1 135.056,200.004 128,200.004 L24,200.004 C19.584,200.004 16,196.42 16,192.004 L16,144.004 C16,130.772 26.768,120.004 40,120.004 C53.232,120.004 64,130.772 64,144.004 L64,152.004 L80,152.004 L80,144.004 C80,141.268 79.72,138.588 79.192,136.004 L96,136.004 L96,152.004 L112,152.004 L112,136.004 L128,136.004 L128,152.004 L144,152.004 L144,136.004 L156.448,136.004 C162,145.524 172.208,152.004 184,152.004 C201.648,152.004 216,137.652 216,120.004 C216,102.356 201.648,88.004 184,88.004 C166.352,88.004 152,102.356 152,120.004 L71.792,120.004 C64.48,110.348 53.008,104.004 40,104.004 C17.944,104.004 0,121.948 0,144.004 L0,192.004 C0,205.236 10.768,216.004 24,216.004 L128,216.004 C130.352,216.004 132.568,217.036 134.104,218.836 C135.648,220.668 136.28,222.996 135.888,225.404 C135.272,229.108 131.416,232.004 127.096,232.004 L40,232.004 C17.944,232.004 0,249.948 0,272.004 C0,294.06 17.944,312.004 40,312.004 L168,312.004 Z M184,104.004 C192.824,104.004 200,111.18 200,120.004 C200,128.828 192.824,136.004 184,136.004 C175.176,136.004 168,128.828 168,120.004 C168,111.18 175.176,104.004 184,104.004 Z" id="Shape"></path>
            <path d="M413.032,191.9 C428.392,191.012 442.76,184.564 454.144,173.172 C465.672,161.644 472.016,146.316 472.008008,130.004 L471.992,112.004 L417.256,112.004 C408.264,112.004 399.808,108.5 393.448,102.148 C390.32,99.02 386.928,96.252 383.384,93.756 C397.672,91.092 411.496,86.084 424.184,78.828 C443.816,67.62 456,46.612 456,24.004 L456,12.9 L369.104,41.868 C356.88,45.94 344.168,48.004 331.312,48.004 C329.488,48.004 328,46.516 328,44.692 C328,43.82 328.352,42.964 328.968,42.348 L371.312,0.004 L352,0.004 C309.912,0.004 270.352,16.02 240,44.964 L240,12.692 L226.344,26.348 C212.376,40.316 193.816,48.004 174.064,48.004 L163.312,48.004 C153.88,48.004 145.016,51.676 138.344,58.348 C131.672,65.02 128,73.884 128,83.316 L128,104.004 L144,104.004 L144,83.316 C144,78.156 146.008,73.308 149.656,69.66 C153.304,66.012 158.16,64.004 163.312,64.004 L174.064,64.004 C192.112,64.004 209.344,58.724 224,48.892 L224,80.004 L240,80.004 L240,67.316 L248.4,58.916 C271.12,36.196 299.976,21.86 331.232,17.452 L317.656,31.028 C314.064,34.628 312,39.604 312,44.692 C312,55.34 320.664,64.004 331.312,64.004 C345.888,64.004 360.304,61.668 374.152,57.052 L438.544,35.588 C435.424,47.82 427.464,58.524 416.248,64.932 C399,74.796 379.376,80.004 359.504,80.004 L344,80.004 L344,80.196 C342.664,80.132 341.344,80.004 340,80.004 C320.4,80.004 301.976,87.46 287.856,100.956 C277.696,92.676 264.784,88.004 251.616,88.004 C242.784,88.004 233.944,90.092 226.032,94.044 L220.424,96.852 L227.584,111.164 L233.192,108.356 C248.616,100.66 268.592,103.908 280.76,116.076 L284.688,120.004 L280.76,123.932 C268.592,136.1 248.608,139.356 233.192,131.652 L227.584,128.844 L220.424,143.156 L226.032,145.964 C233.944,149.916 242.792,152.004 251.616,152.004 C266.68,152.004 281.424,145.892 292.072,135.244 L307.312,120.004 L299.384,112.076 C310.456,101.724 324.768,96.004 340,96.004 C355.92,96.004 370.88,102.196 382.144,113.46 C391.52,122.836 403.992,128.004 417.256,128.004 L456.008,128.004 L456.008,130.02 C456.016,142.044 451.336,153.356 442.424,162.268 C433.56,171.132 421.832,176.004 409.376,176.004 C409.368,176.004 409.36,176.004 409.352,176.004 L372.688,176.004 L390.064,193.38 C407.68,210.996 430.48,221.548 455.024,223.628 C453.656,228.892 450.904,233.788 447.032,237.66 L445.656,239.036 C439.952,244.74 432.064,248.004 424,248.004 L392,248.004 L392,256.004 C392,285.524 414.96,309.788 443.96,311.86 C435.352,329.028 420.312,342.132 401.912,348.268 C394.488,350.748 386.736,352.004 378.88,352.004 L316.688,352.004 L361.72,397.036 C342.056,404.316 321.472,408.004 300.456,408.004 C253.288,408.004 208.952,389.636 175.6,356.284 L170.6,351.284 C168.904,343.668 168,335.876 168,328.004 L152,328.004 C152,350.18 157.976,371.956 169.272,391.012 C146.04,387.86 124.576,377.268 107.72,360.412 L80,332.692 L80,386.212 L70.696,380.9 C51.768,370.084 40,349.812 40,328.004 L24,328.004 C24,355.54 38.848,381.132 62.76,394.796 L96,413.796 L96,371.316 L96.408,371.724 C119.808,395.124 150.904,408.004 184,408.004 L198.136,408.004 L184.376,385.084 C217.632,410.316 257.984,424.004 300.456,424.004 C325.056,424.004 349.12,419.372 371.968,410.228 L390.24,402.924 L355.312,368.004 L378.88,368.004 C388.448,368.004 397.904,366.476 406.976,363.444 C431.808,355.172 451.632,336.484 461.352,312.172 L467.816,296.004 L448,296.004 C428.68,296.004 412.52,282.236 408.808,264.004 L424,264.004 C436.272,264.004 448.288,259.028 456.968,250.348 L458.344,248.972 C467.024,240.292 472,228.276 472,216.004 L472,208.004 L464,208.004 C445.496,208.004 427.84,202.364 413.032,191.9 Z" id="Path"></path>
            <path d="M296,152.004 L280,152.004 L280,166.068 C280,185.82 272.312,204.38 258.344,218.348 C244.376,232.316 225.816,240.004 206.064,240.004 L181.64,240.004 C183.16,234.932 184,229.564 184,224.004 C184,193.132 158.872,168.004 128,168.004 L32,168.004 L32,184.004 L128,184.004 C150.056,184.004 168,201.948 168,224.004 C168,246.06 150.056,264.004 128,264.004 L32,264.004 L32,280.004 L128,280.004 C146.976,280.004 163.752,270.492 173.888,256.004 L192.144,256.004 L197.344,272.004 L184,272.004 L184,305.38 C184,321.868 190.688,338.004 202.344,349.66 C214,361.316 230.144,368.004 246.624,368.004 L291.312,368.004 L270.624,347.316 C264.2,340.884 259.744,333.02 257.552,324.444 L270.888,329.78 C281.224,333.908 292.112,336.004 303.232,336.004 C326.496,336.004 348.376,326.94 364.824,310.492 L387.312,288.004 L368,288.004 C354.968,288.004 342.48,284.428 331.664,277.74 C346.92,274.156 360.92,266.396 372.28,255.036 L403.312,224.004 L328,224.004 L328,240.004 L364.688,240.004 L360.968,243.724 C347.888,256.804 330.496,264.004 312,264.004 L292.688,264.004 L307.72,279.036 C319.568,290.884 334.296,298.82 350.32,302.188 C337.32,313.708 320.76,320.004 303.232,320.004 C294.152,320.004 285.272,318.292 276.824,314.916 L240,300.188 L240,312.004 C240,326.652 244.744,340.564 253.504,352.004 L246.632,352.004 C234.36,352.004 222.344,347.028 213.664,338.348 C204.984,329.668 200,317.652 200,305.38 L200,288.004 L210.744,288.004 C242.064,288.004 271.512,275.812 293.656,253.66 C315.8,231.508 328,202.068 328,170.748 L328,152.004 L312,152.004 L312,168.004 L295.904,168.004 C295.92,167.356 296,166.716 296,166.068 L296,152.004 Z M214.112,271.844 L208.92,255.868 C214.832,255.684 220.632,254.94 226.28,253.644 L237.056,268.46 C229.632,270.444 221.96,271.588 214.112,271.844 Z M252.736,262.82 L242.24,248.38 C247.744,245.964 252.984,242.972 257.936,239.46 L273.072,250.46 C266.76,255.42 259.936,259.54 252.736,262.82 Z M285.032,239.38 L270.448,228.78 C274.68,224.444 278.408,219.748 281.632,214.772 L298.944,220.396 C295.112,227.188 290.44,233.54 285.032,239.38 Z M311.04,184.004 C310.064,191.492 308.264,198.772 305.688,205.772 L289.232,200.42 C291.416,195.14 293.08,189.644 294.216,184.004 L311.04,184.004 Z" id="Shape"></path>
        </g>
    </g>
</svg>