<?xml version="1.0" encoding="UTF-8"?>
<svg width="512px" height="512px" viewBox="0 0 512 512" version="1.1" xmlns="http://www.w3.org/2000/svg" xmlns:xlink="http://www.w3.org/1999/xlink">
    <!-- Generator: Sketch 63.1 (92452) - https://sketch.com -->
    <title>info</title>
    <desc>Created with Sketch.</desc>
    <g id="Page-1" stroke="none" stroke-width="1" fill="none" fill-rule="evenodd">
        <g id="info" fill="#FFFFFF" fill-rule="nonzero">
            <path d="M256,0 C114.51,0 0,114.497 0,256 C0,397.49 114.497,512 256,512 C397.49,512 512,397.503 512,256 C512,114.51 397.503,0 256,0 Z M256,477.867 C133.663,477.867 34.133,378.338 34.133,256 C34.133,133.662 133.663,34.133 256,34.133 C378.337,34.133 477.867,133.663 477.867,256 C477.867,378.337 378.337,477.867 256,477.867 Z" id="Shape"></path>
            <path d="M255.997,209.777 C246.572,209.777 238.93,217.418 238.93,226.844 L238.93,370.813 C238.93,380.238 246.571,387.88 255.997,387.88 C265.423,387.88 273.064,380.239 273.064,370.813 L273.064,226.843 C273.063,217.417 265.422,209.777 255.997,209.777 Z" id="Path" stroke="#979797"></path>
            <path d="M256,124.122 C237.179,124.122 221.867,139.434 221.867,158.255 C221.867,177.076 237.179,192.388 256,192.388 C274.821,192.388 290.133,177.076 290.133,158.255 C290.133,139.434 274.821,124.122 256,124.122 Z" id="Path"></path>
        </g>
    </g>
</svg>