<?xml version="1.0" encoding="UTF-8"?>
<svg width="512px" height="512px" viewBox="0 0 512 512" version="1.1" xmlns="http://www.w3.org/2000/svg" xmlns:xlink="http://www.w3.org/1999/xlink">
    <!-- Generator: Sketch 63.1 (92452) - https://sketch.com -->
    <title>line-chart</title>
    <desc>Created with Sketch.</desc>
    <g id="Page-1" stroke="none" stroke-width="1" fill="none" fill-rule="evenodd">
        <g id="line-chart" fill="#FFFFFF" fill-rule="nonzero">
            <path d="M9.002,0 C4.34,0 0.562,3.778 0.562,8.44 L0.562,101.983 C0.562,106.644 4.34,110.423 9.002,110.423 C13.664,110.423 17.442,106.645 17.442,101.983 L17.442,8.44 C17.442,3.778 13.664,0 9.002,0 Z" id="Path"></path>
            <path d="M502.998,495.121 L17.442,495.121 L17.442,135.741 C17.442,131.079 13.664,127.301 9.002,127.301 C4.34,127.301 0.562,131.079 0.562,135.741 L0.562,503.561 C0.562,508.223 4.34,512.001 9.002,512.001 L502.998,512.001 C507.66,512.001 511.438,508.223 511.438,503.561 C511.438,498.898 507.66,495.121 502.998,495.121 Z" id="Path"></path>
            <path d="M420.129,87.155 C400.184,87.155 383.957,103.381 383.957,123.327 C383.957,133.362 388.068,142.453 394.69,149.012 L325.852,262.565 C322.377,261.451 318.677,260.844 314.837,260.844 C306.376,260.844 298.591,263.772 292.424,268.657 L243.243,229.987 C245.365,225.388 246.558,220.276 246.558,214.888 C246.558,194.942 230.332,178.716 210.387,178.716 C190.441,178.716 174.215,194.942 174.215,214.888 C174.215,224.55 178.03,233.331 184.224,239.826 L116.248,345.026 C112.491,343.7 108.455,342.972 104.25,342.972 C84.305,342.972 68.078,359.199 68.078,379.144 C68.078,399.09 84.305,415.316 104.25,415.316 C124.195,415.316 140.422,399.089 140.422,379.144 C140.422,369.482 136.607,360.701 130.414,354.206 L198.39,249.006 C202.147,250.332 206.183,251.06 210.387,251.06 C218.847,251.06 226.631,248.132 232.799,243.247 L281.98,281.917 C279.858,286.516 278.665,291.628 278.665,297.016 C278.665,316.961 294.891,333.188 314.837,333.188 C334.783,333.188 351.009,316.961 351.009,297.016 C351.009,286.981 346.898,277.89 340.276,271.33 L409.114,157.777 C412.589,158.891 416.289,159.498 420.129,159.498 C440.074,159.498 456.301,143.272 456.301,123.326 C456.301,103.381 440.075,87.155 420.129,87.155 Z M104.251,398.438 C93.614,398.438 84.958,389.784 84.958,379.145 C84.958,368.507 93.612,359.852 104.251,359.852 C114.888,359.852 123.544,368.506 123.544,379.145 C123.544,389.783 114.889,398.438 104.251,398.438 Z M210.386,234.182 C199.749,234.182 191.093,225.528 191.093,214.889 C191.093,204.252 199.749,195.596 210.386,195.596 C221.023,195.596 229.678,204.25 229.678,214.889 C229.678,225.526 221.024,234.182 210.386,234.182 Z M314.835,316.31 C304.198,316.31 295.542,307.655 295.542,297.017 C295.542,286.38 304.196,277.724 314.835,277.724 C325.472,277.725 334.128,286.38 334.128,297.017 C334.128,307.654 325.473,316.31 314.835,316.31 Z M420.127,142.622 C409.49,142.622 400.834,133.968 400.834,123.329 C400.835,112.692 409.49,104.036 420.127,104.036 C430.764,104.036 439.42,112.691 439.42,123.329 C439.42,133.966 430.765,142.622 420.127,142.622 Z" id="Shape"></path>
        </g>
    </g>
</svg>