<?xml version="1.0" encoding="UTF-8"?>
<svg width="511px" height="417px" viewBox="0 0 511 417" version="1.1" xmlns="http://www.w3.org/2000/svg" xmlns:xlink="http://www.w3.org/1999/xlink">
    <!-- Generator: Sketch 63.1 (92452) - https://sketch.com -->
    <title>photo</title>
    <desc>Created with Sketch.</desc>
    <g id="Page-1" stroke="none" stroke-width="1" fill="none" fill-rule="evenodd">
        <g id="photo" fill="#FFFFFF" fill-rule="nonzero">
            <path d="M468.572227,84.2532547 L464.190169,84.2532547 C461.624872,62.2727883 443.936796,44.8459207 421.831573,42.7133708 C419.293566,19.017509 399.192239,0.499024412 374.837508,0.499024412 L73.2084402,0.499024412 C32.8420441,0.499024412 0,33.3410685 0,73.7035662 L0,285.192452 C0,309.718722 18.7679967,329.933109 42.6899795,332.244995 C45.2006951,355.687447 64.908261,374.049986 88.9121157,374.43595 C88.9744937,378.595787 89.6255639,382.611374 90.8068485,386.40084 C96.1830571,403.660068 112.31558,416.225346 131.321393,416.225346 L468.572227,416.225346 C491.967896,416.225346 511.000998,397.192243 511.000998,373.800474 L511.000998,126.682026 C511.000998,103.286357 491.967896,84.2532547 468.572227,84.2532547 Z M491.040022,126.682026 L491.040022,290.100825 L447.624898,257.305564 C435.761372,248.346516 419.718516,248.206165 407.702945,256.958586 L352.782969,296.974107 L248.05022,188.997699 C235.57461,176.132225 215.274453,175.340804 201.835882,187.200431 L108.857497,269.231467 L108.857497,126.682026 C108.857497,114.292185 118.935451,104.214231 131.321393,104.214231 L468.572227,104.214231 C480.962068,104.214231 491.040022,114.292185 491.040022,126.682026 Z M491.040022,373.796575 C491.040022,386.186415 480.962068,396.264369 468.576126,396.264369 L131.321393,396.264369 C121.259034,396.264369 112.717139,389.609411 109.871141,380.471027 C109.212272,378.361868 108.857497,376.120158 108.857497,373.800474 L108.857497,295.847402 L215.044434,202.167265 C220.475223,197.371952 228.677937,197.69164 233.722762,202.892409 L280.98973,251.625263 C280.98973,251.629161 280.98973,251.629161 280.993629,251.629161 L375.071427,348.623133 C377.028538,350.642622 379.628923,351.656265 382.237105,351.656265 C384.740025,351.656265 387.246842,350.720595 389.18446,348.841456 C393.13767,345.001307 393.235135,338.685529 389.398885,334.728421 L366.81803,311.445814 L419.457309,273.095008 C424.314999,269.555054 430.798418,269.609635 435.593731,273.23146 L491.040022,315.114423 L491.040022,373.796575 Z M62.3780515,327.180677 L62.3780515,91.5319938 C62.3780515,90.5300456 62.4287334,89.5358962 62.5300983,88.5612386 C64.0193738,73.9140927 76.4287076,62.4482263 91.461818,62.4482263 L213.543463,62.4482263 C219.056122,62.4482263 223.523951,57.9803989 223.523951,52.4677381 C223.523951,46.9550783 219.056122,42.4872498 213.543463,42.4872498 L91.461818,42.4872498 C64.4170343,42.4872498 42.417075,64.4872091 42.417075,91.5319938 L42.417075,312.077392 C29.6646619,309.7811 19.9609765,298.599834 19.9609765,285.192452 L19.9609765,73.7035662 C19.9609765,44.3468963 43.8478718,20.4600009 73.2084402,20.4600009 L374.837508,20.4600009 C388.085048,20.4600009 399.16105,29.9453631 401.628881,42.4872498 L293.387369,42.4872498 C287.874708,42.4872498 283.40688,46.9550783 283.40688,52.4677381 C283.40688,57.9803989 287.874708,62.4482263 293.387369,62.4482263 L412.12399,62.4482263 L412.135685,62.4482263 L417.254583,62.4482263 C430.42415,62.4482263 441.449471,71.8244279 444.003072,84.2532547 L131.321393,84.2532547 C107.929624,84.2532547 88.8965202,103.286357 88.8965202,126.682026 L88.8965202,291.33669 L88.8965202,291.344486 L88.8965202,354.474974 C74.2025907,354.05782 62.3780515,341.975971 62.3780515,327.180677 Z" id="Shape"></path>
            <path d="M387.757563,144.834039 C364.202051,144.834039 345.044192,163.995796 345.044192,187.54351 C345.044192,211.095123 364.20595,230.256881 387.757563,230.256881 C411.305277,230.256881 430.467035,211.095123 430.467035,187.54351 C430.467035,163.995796 411.305277,144.834039 387.757563,144.834039 Z M387.757563,210.295905 C375.211777,210.295905 365.005168,200.089296 365.005168,187.547409 C365.005168,175.001624 375.211777,164.795015 387.757563,164.795015 C400.299449,164.795015 410.506059,175.001624 410.506059,187.547409 C410.506059,200.089296 400.299449,210.295905 387.757563,210.295905 Z" id="Shape"></path>
            <path d="M244.252957,56.2883947 C244.502469,56.888783 244.81046,57.46578 245.169135,58.0076895 C245.531707,58.5534975 245.94886,59.064218 246.408898,59.5242557 C246.868936,59.9803949 247.375758,60.4014468 247.925464,60.7718167 C248.463475,61.1304905 249.052167,61.4384824 249.652557,61.6879946 C250.249047,61.9375068 250.880625,62.1285393 251.52,62.2571938 C252.155477,62.3858483 252.814344,62.4482263 253.465416,62.4482263 C254.124284,62.4482263 254.771455,62.3858483 255.422526,62.2571938 C256.058003,62.1285393 256.677885,61.9375068 257.28607,61.6879946 C257.886459,61.4384824 258.463456,61.1304905 259.005366,60.7718167 C259.551174,60.4014468 260.061894,59.9803949 260.521932,59.5242557 C260.989768,59.064218 261.399123,58.5534975 261.769493,58.0076895 C262.128167,57.46578 262.436159,56.888783 262.685671,56.2883947 C262.935183,55.6802077 263.126216,55.0525288 263.25487,54.42485 C263.383526,53.7737788 263.445904,53.1149109 263.445904,52.4677381 C263.445904,51.8166679 263.383526,51.157799 263.25487,50.5223234 C263.126216,49.8829483 262.935183,49.2513701 262.685671,48.6548802 C262.436159,48.0466942 262.128167,47.4657988 261.769493,46.9277876 C261.399123,46.3780813 260.989768,45.8712601 260.521932,45.4112215 C260.061894,44.9511829 259.551174,44.5340304 259.005366,44.1714572 C258.463456,43.8127844 257.886459,43.5047926 257.28607,43.2552804 C256.677885,43.0057681 256.058003,42.8147356 255.422526,42.6860801 C254.13208,42.4248718 252.806547,42.4248718 251.52,42.6860801 C250.880625,42.8147356 250.249047,43.0057681 249.652557,43.2552804 C249.052167,43.5047926 248.463475,43.8127844 247.925464,44.1714572 C247.375758,44.5340304 246.868936,44.9511829 246.408898,45.4112215 C245.94886,45.8712601 245.531707,46.3780813 245.169135,46.9277876 C244.81046,47.4657988 244.502469,48.0466942 244.252957,48.6548802 C244.003445,49.2513701 243.812411,49.8829483 243.683757,50.5223234 C243.555102,51.157799 243.484927,51.8166679 243.484927,52.4677381 C243.484927,53.1149109 243.555102,53.7737788 243.683757,54.42485 C243.812411,55.0525288 244.003445,55.6802077 244.252957,56.2883947 Z" id="Path"></path>
        </g>
    </g>
</svg>