<?xml version="1.0" encoding="UTF-8"?>
<svg width="512px" height="512px" viewBox="0 0 512 512" version="1.1" xmlns="http://www.w3.org/2000/svg" xmlns:xlink="http://www.w3.org/1999/xlink">
    <!-- Generator: Sketch 63.1 (92452) - https://sketch.com -->
    <title>pie</title>
    <desc>Created with Sketch.</desc>
    <g id="Page-1" stroke="none" stroke-width="1" fill="none" fill-rule="evenodd">
        <g id="pie" fill="#FFFFFF" fill-rule="nonzero">
            <path d="M277.333,224 L480,224 C485.896,224 490.667,219.229 490.667,213.333 C490.667,95.698 394.969,0 277.333,0 C271.437,0 266.666,4.771 266.666,10.667 L266.666,213.334 C266.666,219.229 271.438,224 277.333,224 Z M288,21.625 C385.396,26.99 463.677,105.271 469.042,202.667 L288,202.667 L288,21.625 Z" id="Shape"></path>
            <path d="M501.333,245.333 L298.667,245.333 C294.354,245.333 290.459,247.927 288.813,251.916 C287.157,255.906 288.073,260.489 291.126,263.541 L434.439,406.854 C436.439,408.854 439.147,409.979 441.981,409.979 C444.815,409.979 447.523,408.854 449.523,406.854 C489.813,366.552 512,312.979 512,256 C512,250.104 507.229,245.333 501.333,245.333 Z M441.771,384.021 L324.417,266.667 L490.375,266.667 C488,310.406 471.021,351.406 441.771,384.021 Z" id="Shape"></path>
            <path d="M245.333,251.583 L245.333,53.333 C245.333,47.437 240.562,42.666 234.666,42.666 C105.271,42.666 0,147.938 0,277.333 C0,406.728 105.271,512 234.667,512 C302.198,512 366.563,482.687 411.25,431.573 C414.948,427.344 414.729,420.979 410.76,417.01 L245.333,251.583 Z M234.667,490.667 C117.032,490.667 21.334,394.969 21.334,277.334 C21.334,163.282 111.303,69.834 224.001,64.261 L224.001,256 C224.001,258.833 225.126,261.542 227.126,263.542 L388.459,424.875 C348.24,466.802 292.74,490.667 234.667,490.667 Z" id="Shape"></path>
        </g>
    </g>
</svg>