<?xml version="1.0" encoding="UTF-8"?>
<svg width="512px" height="504px" viewBox="0 0 512 504" version="1.1" xmlns="http://www.w3.org/2000/svg" xmlns:xlink="http://www.w3.org/1999/xlink">
    <!-- Generator: Sketch 63.1 (92452) - https://sketch.com -->
    <title>pin</title>
    <desc>Created with Sketch.</desc>
    <g id="Page-1" stroke="none" stroke-width="1" fill="none" fill-rule="evenodd">
        <g id="pin" fill="#FFFFFF" fill-rule="nonzero">
            <path d="M167.974,346.473 C189.06,376.203 210.112,402.793 224.064,419.919 C226.095,422.411 227.998,424.723 229.841,426.95 L187.738,426.95 C183.025,426.95 179.205,430.77 179.205,435.483 C179.205,440.196 183.025,444.016 187.738,444.016 L324.27,444.016 C328.983,444.016 332.803,440.196 332.803,435.483 C332.803,430.77 328.983,426.95 324.27,426.95 L282.167,426.95 C284.01,424.723 285.913,422.41 287.953,419.919 C301.896,402.852 322.94,376.203 344.034,346.473 C364.963,317.568 383.801,287.206 400.405,255.619 C417.83,221.4 426.67114,192.993 426.67114,171.182 C426.729,125.861 408.745,82.381 376.691,50.341 C374.55,48.121 371.378,47.229 368.394,48.008 C365.41,48.787 363.078,51.115 362.295,54.098 C361.512,57.081 362.399,60.254 364.616,62.398 C393.468,91.242 409.655,130.383 409.604,171.181 C409.604,190.279 401.395,216.083 385.199,247.87 C368.97,278.725 350.559,308.383 330.108,336.617 C309.304,365.963 288.508,392.254 274.727,409.15 C270.145,414.765 266.023,419.731 262.507,423.93 C260.866,425.804 258.496,426.878 256.005,426.878 C253.514,426.878 251.144,425.803 249.503,423.93 C245.987,419.732 241.866,414.765 237.283,409.15 C223.502,392.263 202.706,365.971 181.902,336.617 C161.451,308.383 143.04,278.725 126.811,247.87 C110.598,216.083 102.406,190.279 102.406,171.181 C102.401,109.372 139.365,53.554 196.273,29.434 C234.511,13.4 277.587,13.4 315.825,29.434 C318.633,30.624 321.862,30.227 324.297,28.39 C326.732,26.554 328.002,23.558 327.629,20.531 C327.256,17.504 325.297,14.906 322.489,13.716 C235.591,-22.936 135.433,17.778 98.754,104.664 C89.859,125.71 85.297,148.333 85.3396988,171.181 C85.3396988,192.992 94.181,221.4 111.606,255.661 C128.208,287.234 147.047,317.582 167.974,346.473 Z" id="Path"></path>
            <path d="M256.003,94.151 C260.716,94.151 264.536,90.331 264.536,85.618 C264.536,80.905 260.716,77.085 256.003,77.085 C215.293,77.085 180.251,105.842 172.308,145.77 C164.365,185.698 185.734,225.676 223.345,241.256 C260.956,256.836 304.335,243.677 326.953,209.828 C349.571,175.979 345.128,130.866 316.342,102.079 C314.199,99.861 311.027,98.971 308.043,99.752 C305.06,100.533 302.73,102.863 301.949,105.846 C301.168,108.83 302.058,112.002 304.276,114.145 C327.306,137.174 330.861,173.263 312.768,200.343 C294.675,227.423 259.972,237.951 229.883,225.489 C199.794,213.027 182.698,181.045 189.05,149.102 C195.402,117.159 223.435,94.152 256.003,94.151 Z" id="Path"></path>
            <path d="M508.786,465.957 L456.306,372.09 C451.561,363.75 442.682,358.624 433.087,358.683426 L372.27,358.683426 C367.557,358.683426 363.737,362.504 363.737,367.217 C363.737,371.93 367.557,375.75 372.27,375.75 L433.087,375.75 C436.503,375.684 439.69,377.465 441.424,380.409 L493.887,474.276 C495.316,476.718 495.286,479.747 493.81,482.161 C492.067,485.041 488.915,486.766 485.55,486.684 L26.457,486.684 C23.095,486.764 19.947,485.038 18.205,482.161 C16.729,479.747 16.7,476.718 18.128,474.276 L70.591,380.409 C72.322,377.466 75.506,375.685 78.919,375.75 L139.736,375.75 C144.449,375.75 148.269,371.93 148.269,367.217 C148.269,362.504 144.449,358.683426 139.736,358.683426 L78.92,358.683426 C69.32,358.621 60.434,363.747 55.684,372.09 L3.212,465.957 C-1.163,473.685 -1.062,483.165 3.477,490.798 C8.259,498.926 17.028,503.869 26.457,503.752 L485.55,503.752 C494.976,503.866 503.742,498.924 508.522,490.798 C513.061,483.164 513.162,473.685 508.786,465.957 Z" id="Path"></path>
            <path d="M418.137,401.351 L384.004,401.351 C382.319,401.354 380.672,401.852 379.268,402.785 L353.668,419.852 C349.747,422.468 348.689,427.767 351.304,431.688 C353.92,435.609 359.219,436.667 363.14,434.052 L386.564,418.419 L418.137,418.419 C422.85,418.419 426.67,414.598 426.67,409.886 C426.67,405.171 422.85,401.351 418.137,401.351 Z" id="Path"></path>
            <path d="M366.937,461.084 C366.937,465.797 370.757,469.617 375.47,469.617 L443.737,469.617 C448.45,469.617 452.27,465.797 452.27,461.084 C452.27,456.371 448.45,452.551 443.737,452.551 L375.47,452.551 C370.757,452.551 366.937,456.371 366.937,461.084 Z" id="Path"></path>
            <path d="M153.603,435.484008 C157.365,435.489 160.686,433.029 161.779,429.429 C162.872,425.829 161.478,421.938 158.348,419.851 L132.748,402.784 C131.342,401.85 129.691,401.351 128.003,401.35 L93.87,401.35 C89.157,401.35 85.337,405.171 85.337,409.883 C85.337,414.596 89.158,418.416 93.87,418.416 L125.443,418.416 L148.893,434.049 C150.288,434.981 151.927,435.48 153.603,435.484008 Z" id="Path"></path>
            <path d="M68.27,452.551 C63.557,452.551 59.737,456.371 59.737,461.084 C59.737,465.797 63.557,469.617 68.27,469.617 L136.537,469.617 C141.25,469.617 145.07,465.797 145.07,461.084 C145.07,456.371 141.25,452.551 136.537,452.551 L68.27,452.551 Z" id="Path"></path>
        </g>
    </g>
</svg>