<?xml version="1.0" encoding="UTF-8"?>
<svg width="512px" height="512px" viewBox="0 0 512 512" version="1.1" xmlns="http://www.w3.org/2000/svg" xmlns:xlink="http://www.w3.org/1999/xlink">
    <!-- Generator: Sketch 63.1 (92452) - https://sketch.com -->
    <title>Shape</title>
    <desc>Created with Sketch.</desc>
    <g id="Page-1" stroke="none" stroke-width="1" fill="none" fill-rule="evenodd">
        <g id="plan" fill="#FFFFFF" fill-rule="nonzero">
            <path d="M507.361,240.867 C504.553,239.703 501.321,240.346 499.171,242.495 L476.664,265.002 L476.664,111.971 C476.664,107.82 473.299,104.456 469.149,104.456 L411.408,104.456 L432.368,83.496 C432.371,83.493 432.374,83.489 432.377,83.486 L452.573,63.29 C456.9,58.963 459.283,53.207 459.283,47.087 C459.283,40.967 456.9,35.213 452.573,30.884 L429.219,7.53 C424.892,3.203 419.136,0.82 413.016,0.82 C406.896,0.82 401.141,3.203 396.813,7.53 L376.607,27.736 L352.191,52.152 L299.888,104.455 L66.62,104.455 L66.62,30.11 C66.62,25.959 63.255,22.595 59.105,22.595 C26.515,22.597 0,49.11 0,81.702 L0,400.888 C0,401.443 0.064,401.983 0.178,402.503 C1.216,416.332 7.199,429.181 17.198,438.935 C27.886,449.359 41.995,455.1 56.927,455.1 L286.565,455.1 L243.316,498.349 C241.167,500.499 240.524,503.73 241.687,506.539 C242.85,509.347 245.591,511.178 248.63,511.178 L504.485,511.178 C508.635,511.178 512,507.814 512,503.663 L512,247.81 C512,244.771 510.168,242.03 507.361,240.867 Z M407.443,18.159 C410.515,15.085 415.52,15.085 418.592,18.159 L441.947,41.514 C445.021,44.587 445.021,49.59 441.947,52.664 L427.056,67.556 L392.55,33.051 L407.443,18.159 Z M381.922,43.679 L416.427,78.183 L402.638,91.972 L368.135,57.468 L381.922,43.679 Z M496.972,332.252 L483.107,332.252 C478.956,332.252 475.592,335.616 475.592,339.767 C475.592,343.918 478.956,347.282 483.107,347.282 L496.972,347.282 L496.972,369.928 L483.107,369.928 C478.956,369.928 475.592,373.292 475.592,377.443 C475.592,381.594 478.956,384.958 483.107,384.958 L496.972,384.958 L496.972,407.603 L483.107,407.603 C478.956,407.603 475.592,410.967 475.592,415.118 C475.592,419.269 478.956,422.633 483.107,422.633 L496.972,422.633 L496.972,445.279 L483.107,445.279 C478.956,445.279 475.592,448.644 475.592,452.794 C475.592,456.945 478.956,460.309 483.107,460.309 L496.972,460.309 L496.972,496.151 L266.772,496.151 L342.68,420.244 C345.615,417.308 345.615,412.551 342.68,409.616 C342.343,409.279 341.981,408.987 341.602,408.727 C338.676,406.723 334.65,407.018 332.051,409.616 L301.595,440.072 L56.928,440.072 C34.136,440.072 15.788,422.278 15.066,399.527 C15.109,398.099 15.22,396.683 15.398,395.283 C15.399,395.275 15.4,395.267 15.401,395.259 C15.485,394.594 15.586,393.932 15.701,393.274 C15.714,393.199 15.728,393.124 15.741,393.049 C15.846,392.462 15.964,391.878 16.093,391.296 C16.129,391.134 16.167,390.972 16.205,390.811 C16.319,390.319 16.442,389.83 16.574,389.343 C16.646,389.079 16.721,388.818 16.798,388.555 C16.908,388.173 17.022,387.792 17.143,387.415 C17.264,387.038 17.393,386.665 17.524,386.292 C17.615,386.031 17.705,385.77 17.803,385.511 C17.986,385.019 18.18,384.532 18.38,384.049 C18.437,383.91 18.493,383.769 18.552,383.63 C18.809,383.03 19.076,382.437 19.358,381.851 C19.37,381.826 19.381,381.801 19.393,381.776 C25.271,369.612 36.576,360.543 50.143,357.729 C50.181,357.721 50.219,357.712 50.257,357.704 C50.879,357.577 51.507,357.468 52.139,357.367 C52.244,357.35 52.349,357.329 52.456,357.313 C53.027,357.226 53.604,357.158 54.181,357.093 C54.343,357.075 54.504,357.05 54.667,357.034 C55.224,356.978 55.786,356.941 56.348,356.906 C56.526,356.895 56.704,356.876 56.882,356.867 C57.618,356.83 58.36,356.811 59.105,356.811 C63.255,356.811 66.62,353.447 66.62,349.296 L66.62,294.807 C66.62,290.656 63.255,287.292 59.105,287.292 C54.955,287.292 51.59,290.656 51.59,294.807 L51.59,342.254 C38.9,343.859 27.121,349.519 17.833,358.589 C16.856,359.543 15.93,360.535 15.028,361.543 L15.028,81.702 C15.028,59.961 30.854,41.844 51.589,38.266 L51.589,111.971 L51.589,264.748 L51.589,264.749 C51.589,268.899 54.954,272.264 59.104,272.264 C63.254,272.264 66.619,268.899 66.619,264.749 L66.619,264.748 L66.619,119.486 L284.859,119.486 L243.315,161.03 C240.38,163.966 240.38,168.723 243.315,171.658 C246.25,174.592 251.008,174.592 253.942,171.658 L308.315,117.285 C308.317,117.283 308.318,117.281 308.32,117.28 L357.505,68.095 L392.008,102.6 L387.96,106.648 C387.957,106.651 387.953,106.654 387.95,106.657 L236.422,258.187 L201.918,223.683 L231.786,193.815 C234.721,190.879 234.721,186.122 231.786,183.187 C228.851,180.253 224.093,180.253 221.159,183.187 L185.976,218.369 C185.788,218.557 185.612,218.756 185.447,218.96 C185.392,219.028 185.343,219.101 185.291,219.172 C185.185,219.313 185.081,219.455 184.984,219.603 C184.929,219.689 184.879,219.777 184.827,219.866 C184.744,220.006 184.664,220.148 184.591,220.293 C184.543,220.387 184.5,220.482 184.456,220.58 C184.389,220.727 184.327,220.877 184.27,221.027 C184.25,221.08 184.224,221.13 184.205,221.183 L169.564,262.658 L159.582,290.937 C159.45,291.313 159.355,291.695 159.284,292.08 L134.292,292.08 C130.142,292.08 126.777,295.444 126.777,299.595 C126.777,303.746 130.142,307.11 134.292,307.11 L342.406,307.11 C346.557,307.11 349.921,303.746 349.921,299.595 C349.921,295.444 346.557,292.08 342.406,292.08 L193.093,292.08 L238.923,275.902 C238.961,275.888 238.997,275.869 239.035,275.855 C239.213,275.789 239.388,275.715 239.561,275.636 C239.63,275.604 239.699,275.574 239.766,275.541 C239.946,275.451 240.123,275.352 240.297,275.246 C240.353,275.212 240.411,275.181 240.466,275.146 C240.647,275.03 240.823,274.903 240.996,274.769 C241.039,274.736 241.084,274.707 241.126,274.673 C241.335,274.505 241.54,274.324 241.734,274.13 L396.378,119.487 L461.633,119.487 L461.633,280.033 L354.137,387.53 C351.202,390.466 351.202,395.223 354.137,398.158 C354.32,398.341 354.511,398.513 354.708,398.674 C356.086,399.797 357.769,400.359 359.451,400.359 C361.133,400.359 362.817,399.797 364.194,398.674 C364.391,398.514 364.582,398.341 364.765,398.158 C364.768,398.155 364.765,398.158 364.768,398.155 L496.972,265.95 L496.972,332.252 Z M222.677,265.696 L201.151,273.295 L186.809,258.953 L194.408,237.427 L222.677,265.696 Z" id="Shape"></path>
        </g>
    </g>
</svg>