<?xml version="1.0" encoding="UTF-8"?>
<svg width="494px" height="461px" viewBox="0 0 494 461" version="1.1" xmlns="http://www.w3.org/2000/svg" xmlns:xlink="http://www.w3.org/1999/xlink">
    <!-- Generator: Sketch 63.1 (92452) - https://sketch.com -->
    <title>product</title>
    <desc>Created with Sketch.</desc>
    <g id="Page-1" stroke="none" stroke-width="1" fill="none" fill-rule="evenodd">
        <g id="product" fill="#FFFFFF" fill-rule="nonzero">
            <path d="M463.916,199 L439.007,199 C436.091773,188.447289 426.537493,181.103178 415.59,181 L389,181 L389,115.976 C389.061074,113.499395 387.782102,111.182261 385.654,109.914 L198.077,1.572 C195.924902,0.321093668 193.267098,0.321093668 191.115,1.572 L3.48,109.914 C1.31906807,111.166609 -0.00798955294,113.478283 -3.58733822e-05,115.976 L-3.58733822e-05,332.661 C-3.58733822e-05,335.161796 1.33424748,337.472602 3.5,338.723 L191.154,447.065 C192.218117,447.67944 193.425227,448.002946 194.654,448.003 C195.914519,448.003728 197.154107,447.680747 198.254,447.065 L297,390.108 L297,431.282 C296.979419,439.200045 300.127612,446.797199 305.74276,452.379849 C311.357908,457.962498 318.973208,461.06654 326.891,461.00129 L463.916,461.00129 C471.853789,461.073804 479.49312,457.978266 485.140475,452.399617 C490.78783,446.820967 493.976641,439.220098 494,431.282 L494,229.182 C493.990213,212.555221 480.542659,199.063862 463.916,199 Z M415.839,195 C421.450765,195 426,199.549235 426,205.161 L426,205.839 C426,211.450765 421.450765,216 415.839,216 L375.161,216 C369.549235,216 365,211.450765 365,205.839 L365,205.161 C365,199.549235 369.549235,195 375.161,195 L415.839,195 Z M194.654,15.717 L272.628,60.735 L98.986,160.987 L21.013,115.969 L194.654,15.717 Z M188,428.878 L14,328.619 L14,128.085 L188,228.344 L188,428.878 Z M194.654,216.22 L112.986,169.069 L286.628,68.818 L368.3,115.969 L194.654,216.22 Z M297,229.182 L297,373.943 L202,428.878 L202,228.344 L375,128.085 L375,181 L375.217,181 C364.269391,181.102843 354.714932,188.447091 351.8,199 L326.891,199 C310.302333,199.080439 296.919724,212.593332 297,229.182 Z M480,431.282 C479.980647,435.508454 478.26803,439.5508 475.24525,442.504795 C472.22247,445.45879 468.14178,447.077921 463.916,447 L326.891,447 C322.685164,447.070862 318.628341,445.443272 315.637709,442.485198 C312.647078,439.527124 310.975179,435.48836 310.999195,431.282 L310.999195,229.182 C310.957372,224.927659 312.608604,220.831054 315.58961,217.795459 C318.570617,214.759864 322.636586,213.034573 326.891,213 L352.073,213 C355.156566,223.177416 364.583193,230.101571 375.217,230 L415.59,230 C426.223654,230.101792 435.65011,223.177463 438.733,213 L463.916,213 C472.813862,213.056073 479.997978,220.283962 480,229.182 L480,431.282 Z" id="Shape"></path>
            <path d="M334.949,300 L342.276,300 C346.141993,300 349.276,296.865993 349.276,293 C349.276,289.134007 346.141993,286 342.276,286 L342,286 L342,267 L361.307,267 C362.210139,269.892792 364.933152,271.826929 367.962,271.727 C371.83227,271.737525 374.980715,268.613236 375,264.743 L375,260.033 C374.967127,256.145714 371.811414,253.009178 367.924,253 L334.949,253 C333.094363,253.009515 331.319651,253.75623 330.01611,255.075529 C328.712569,256.394827 327.987231,258.178383 327.999834,260.033 L327.999834,293.008 C327.988818,294.858348 328.715971,296.636764 330.020346,297.949211 C331.324722,299.261658 333.098619,300 334.949,300 Z" id="Path"></path>
            <path d="M335,364 L368,364 C371.865993,364 375,360.865993 375,357 L375,324 C375,320.134007 371.865993,317 368,317 L335,317 C331.134007,317 328,320.134007 328,324 L328,357 C328,360.865993 331.134007,364 335,364 Z M342,331 L361,331 L361,350 L342,350 L342,331 Z" id="Shape"></path>
            <path d="M342.277,414 L342,414 L342,395 L360.929,395 C361.004171,398.829133 364.127774,401.895066 367.957643,401.898877 C371.787512,401.902687 374.917209,398.842976 375,395.014 L375,388.269 C374.985146,384.335238 371.855939,381.12068 367.924,381 L334.949,381 C331.04188,381.131307 327.95539,384.359928 328,388.269 L328,421.244 C327.998141,423.070096 328.736013,424.819079 330.045313,426.092015 C331.354613,427.36495 333.12368,428.05328 334.949,428 L342.277,428 C346.142993,428 349.277,424.865993 349.277,421 C349.277,417.134007 346.142993,414 342.277,414 L342.277,414 Z" id="Path"></path>
            <path d="M384.041,261.592 L363.541,282.092 L357.305,275.855 C355.536535,274.086535 352.958942,273.395871 350.543174,274.043174 C348.127407,274.690477 346.240477,276.577407 345.593174,278.993174 C344.945871,281.408942 345.636535,283.986535 347.405,285.755 L358.592,296.941 C359.904775,298.253909 361.685361,298.991505 363.542,298.991505 C365.398639,298.991505 367.179225,298.253909 368.492,296.941 L393.944,271.489 C396.67781,268.75519 396.67781,264.32281 393.944,261.589 C391.21019,258.85519 386.77781,258.85519 384.044,261.589 L384.041,261.592 Z" id="Path"></path>
            <path d="M384.041,390.841 L363.541,411.341 L357.305,405.104 C355.536535,403.335535 352.958942,402.644871 350.543174,403.292174 C348.127407,403.939477 346.240477,405.826407 345.593174,408.242174 C344.945871,410.657942 345.636535,413.235535 347.405,415.004 L358.592,426.19 C359.904775,427.502909 361.685361,428.240505 363.542,428.240505 C365.398639,428.240505 367.179225,427.502909 368.492,426.19 L393.944,400.738 C396.677809,398.00419 396.677809,393.57181 393.944,390.838 C391.21019,388.104191 386.77781,388.104191 384.044,390.838 L384.041,390.841 Z" id="Path"></path>
            <path d="M455.857,270 L411.891,270 C408.025007,270 404.891,273.134007 404.891,277 C404.891,280.865993 408.025007,284 411.891,284 L455.857,284 C459.722993,284 462.857,280.865993 462.857,277 C462.857,273.134007 459.722993,270 455.857,270 L455.857,270 Z" id="Path"></path>
            <path d="M455.857,334 L411.891,334 C408.025007,334 404.891,337.134007 404.891,341 C404.891,344.865993 408.025007,348 411.891,348 L455.857,348 C459.722993,348 462.857,344.865993 462.857,341 C462.857,337.134007 459.722993,334 455.857,334 L455.857,334 Z" id="Path"></path>
            <path d="M455.857,398 L411.891,398 C408.025007,398 404.891,401.134007 404.891,405 C404.891,408.865993 408.025007,412 411.891,412 L455.857,412 C459.722993,412 462.857,408.865993 462.857,405 C462.857,401.134007 459.722993,398 455.857,398 L455.857,398 Z" id="Path"></path>
        </g>
    </g>
</svg>