<?xml version="1.0" encoding="UTF-8"?>
<svg width="424px" height="512px" viewBox="0 0 424 512" version="1.1" xmlns="http://www.w3.org/2000/svg" xmlns:xlink="http://www.w3.org/1999/xlink">
    <!-- Generator: Sketch 63.1 (92452) - https://sketch.com -->
    <title>project</title>
    <desc>Created with Sketch.</desc>
    <g id="Page-1" stroke="none" stroke-width="1" fill="none" fill-rule="evenodd">
        <g id="project" fill="#FFFFFF" fill-rule="nonzero">
            <path d="M212,165.004 C161.824,165.004 121.004,205.824 121.004,256 C121.004,273.666 126.07,290.168 134.817,304.142 C135.083,304.658 135.403,305.153 135.765,305.626 C152.021,330.513 180.12,346.996 212,346.996 C262.176,346.996 302.996,306.175 302.996,256 C302.996,205.825 262.176,165.004 212,165.004 Z M146.288,282.841 C142.891,274.555 141.003,265.496 141.003,256 C141.003,216.852 172.852,185.004 212,185.004 C235.955,185.004 257.16,196.941 270.024,215.167 L215.103,270.088 L194.143,249.129 C190.237,245.224 183.907,245.225 180,249.129 L146.288,282.841 Z M212,326.996 C189.736,326.996 169.842,316.686 156.815,300.599 L187.072,270.342 L208.032,291.301 C211.938,295.206 218.268,295.205 222.175,291.301 L279.487,233.989 C281.755,240.923 282.997,248.317 282.997,255.999 C282.997,295.147 251.147,326.996 212,326.996 Z" id="Shape"></path>
            <path d="M365.845,249.101 C364.274,200.233 350.599,152.309 326.053,109.934 C299.92,64.82 262.201,27.263 216.974,1.325 C213.894,-0.442 210.105,-0.442 207.025,1.325 C161.799,27.263 124.08,64.82 97.946,109.933 C73.4,152.308 59.725,200.232 58.154,249.1 C23.098,264.144 0,298.76 0,337.351 L0,408 C0,413.523 4.478,418 10,418 L156.941,418 C159.096,448.079 172.265,476.889 193.824,498.131 L204.981,509.124 C206.927,511.041 209.463,512 212,512 C214.537,512 217.072,511.041 219.019,509.124 L230.176,498.131 C251.735,476.889 264.904,448.08 267.059,418.001 L298,418.001 L298,469.613 C298,475.136 302.478,479.613 308,479.613 C313.522,479.613 318,475.136 318,469.613 L318,418 L414,418 C419.522,418 424,413.523 424,408 L424,337.352 C424,298.76 400.901,264.144 365.845,249.101 Z M212,21.597 C243.442,40.516 270.32,65.27 291.574,94 L132.426,94 C153.68,65.27 180.558,40.516 212,21.597 Z M20,398 L20,337.351 C20,309.856 34.81,284.909 58,271.507 L58,388 C58,391.506 58.61,394.87 59.72,398 L20,398 Z M216.139,483.884 L212,487.962 L207.861,483.884 C190.092,466.377 179.114,442.749 177.003,418 L246.997,418 C244.885,442.749 233.907,466.377 216.139,483.884 Z M346,388 C346,393.514 341.514,398 336,398 L88,398 C82.486,398 78,393.514 78,388 L78,258.588 C78,222.378 85.152,187.094 98.428,154.5 L143.707,154.5 C149.229,154.5 153.707,150.023 153.707,144.5 C153.707,138.977 149.229,134.5 143.707,134.5 L107.513,134.5 C111.028,127.508 114.839,120.669 118.93,114 L305.07,114 C331.355,156.854 346,206.772 346,258.588 L346,388 Z M404,398 L364.28,398 C365.39,394.87 366,391.506 366,388 L366,271.508 C389.19,284.909 404,309.856 404,337.352 L404,398 Z" id="Shape"></path>
            <path d="M187.069,137.43 C185.21,135.57 182.63,134.5 180,134.5 C177.37,134.5 174.79,135.57 172.93,137.43 C171.07,139.29 170,141.87 170,144.5 C170,147.13 171.069,149.71 172.93,151.57 C174.791,153.43 177.37,154.5 180,154.5 C182.63,154.5 185.21,153.43 187.069,151.57 C188.929,149.71 190,147.13 190,144.5 C190,141.87 188.93,139.29 187.069,137.43 Z" id="Path"></path>
            <path d="M116,444.751 C110.478,444.751 106,449.228 106,454.751 L106,485.557 C106,491.08 110.478,495.557 116,495.557 C121.522,495.557 126,491.08 126,485.557 L126,454.751 C126,449.228 121.522,444.751 116,444.751 Z" id="Path"></path>
            <path d="M315.069,494.93 C313.21,493.07 310.63,492 308,492 C305.37,492 302.79,493.07 300.93,494.93 C299.07,496.79 298,499.37 298,502 C298,504.63 299.069,507.21 300.93,509.07 C302.791,510.93 305.37,512 308,512 C310.63,512 313.21,510.93 315.069,509.07 C316.929,507.21 318,504.63 318,502 C318,499.37 316.93,496.79 315.069,494.93 Z" id="Path"></path>
        </g>
    </g>
</svg>