<?xml version="1.0" encoding="UTF-8"?>
<svg width="512px" height="494px" viewBox="0 0 512 494" version="1.1" xmlns="http://www.w3.org/2000/svg" xmlns:xlink="http://www.w3.org/1999/xlink">
    <!-- Generator: Sketch 63.1 (92452) - https://sketch.com -->
    <title>rocket</title>
    <desc>Created with Sketch.</desc>
    <g id="Page-1" stroke="none" stroke-width="1" fill="none" fill-rule="evenodd">
        <g id="rocket" fill="#FFFFFF" fill-rule="nonzero">
            <path d="M258.391,116.802 C235.382,116.802 216.662,135.52 216.662,158.528 C216.662,181.537 235.382,200.256 258.391,200.256 C281.4,200.256 300.12,181.537 300.12,158.528 C300.119,135.52 281.4,116.802 258.391,116.802 Z M258.391,184.043 C244.321,184.043 232.874,172.596 232.874,158.527 C232.874,144.459 244.321,133.012 258.391,133.012 C272.461,133.012 283.908,144.458 283.908,158.527 C283.908,172.597 272.461,184.043 258.391,184.043 Z" id="Shape"></path>
            <path d="M424.238,352.855 L424.238,233.182 C424.238,231.024 423.377,228.954 421.846,227.432 L343.957,150.027 L343.957,132.938 C343.957,105.06 336.072,77.955 321.155,54.552 C306.642,31.783 286.168,13.491 261.949,1.654 C259.703,0.556 257.078,0.556 254.831,1.654 C230.612,13.491 210.139,31.783 195.627,54.552 C180.71,77.954 172.825,105.061 172.825,132.938 L172.825,150.027 L94.934,227.432 C93.403,228.954 92.542,231.023 92.542,233.182 L92.542,352.855 C92.542,357.331 96.171,360.961 100.648,360.961 L172.825,360.961 L172.825,361.281 C172.825,377.062 185.664,389.901 201.446,389.901 L213.478,389.901 C208.697,399.899 206.206,410.823 206.206,422.117 C206.206,453.576 226.065,481.935 255.62,492.683 C256.515,493.008 257.452,493.171 258.391,493.171 C259.328,493.171 260.266,493.009 261.161,492.683 C290.717,481.934 310.576,453.575 310.576,422.117 C310.576,410.823 308.086,399.899 303.305,389.901 L315.338,389.901 C331.12,389.901 343.958,377.062 343.958,361.281 L343.958,360.961 L416.132,360.961 C420.61,360.96 424.238,357.331 424.238,352.855 Z M172.825,330.061 L172.825,344.751 L108.753,344.751 L108.753,344.751 L108.753,236.554 L172.825,172.883 L172.825,330.061 Z M201.446,373.689 C194.603,373.69 189.036,368.123 189.036,361.28 L189.036,352.855 L189.036,338.165 L250.285,338.165 L250.285,373.689 L201.446,373.689 Z M258.391,476.36 C236.757,467.22 222.417,445.788 222.417,422.116 C222.417,410.727 225.643,399.809 231.784,390.308 L250.285,390.308 L250.285,405.283 C250.285,409.759 253.914,413.389 258.391,413.389 C262.869,413.389 266.497,409.76 266.497,405.283 L266.497,390.308 L284.999,390.308 C291.139,399.809 294.365,410.726 294.365,422.116 C294.364,445.788 280.026,467.22 258.391,476.36 Z M327.747,361.28 L327.746,361.28 C327.746,368.123 322.179,373.689 315.337,373.689 L266.497,373.689 L266.497,338.165 L327.747,338.165 L327.747,361.28 L327.747,361.28 Z M408.027,344.749 L343.957,344.749 L343.957,330.06 L343.957,280.09 C343.957,275.614 340.329,271.984 335.851,271.984 C331.373,271.984 327.745,275.613 327.745,280.09 L327.745,321.955 L266.495,321.955 L266.495,300.428 C266.495,295.952 262.867,292.322 258.389,292.322 C253.913,292.322 250.283,295.951 250.283,300.428 L250.283,321.955 L189.034,321.955 L189.034,153.4 L189.034,132.938 C189.034,84.259 215.506,40.589 258.389,18.024 C301.273,40.588 327.745,84.258 327.745,132.938 L327.745,252.531 C327.745,257.007 331.373,260.637 335.851,260.637 C340.328,260.637 343.957,257.008 343.957,252.531 L343.957,172.882 L408.027,236.553 L408.027,344.749 Z" id="Shape"></path>
            <path d="M443.547,403.122 C434.451,403.122 425.465,404.938 417.142,408.412 C412.6,393.989 399.102,383.501 383.199,383.501 C363.582,383.501 347.622,399.461 347.622,419.079 C347.622,423.555 351.25,427.185 355.728,427.185 C360.206,427.185 363.834,423.556 363.834,419.079 C363.834,408.4 372.521,399.712 383.2,399.712 C393.879,399.712 402.567,408.4 402.567,419.079 C402.567,423.655 400.943,428.095 397.994,431.58 C395.102,434.997 395.528,440.111 398.945,443.003 C400.468,444.291 402.327,444.921 404.177,444.921 C406.479,444.921 408.765,443.946 410.369,442.052 C414.294,437.415 416.934,431.858 418.098,425.958 C425.839,421.632 434.619,419.333 443.548,419.333 C472.354,419.333 495.79,442.769 495.79,471.575 C495.79,476.051 499.418,479.681 503.896,479.681 C508.374,479.681 512.002,476.052 512.002,471.575 C512,433.83 481.292,403.122 443.547,403.122 Z" id="Path"></path>
            <path d="M155.229,437.41 C151.981,437.41 148.826,437.801 145.795,438.519 C146.954,436.538 147.272,434.083 146.455,431.747 C140.17,413.798 123.154,401.737 104.111,401.737 C90.068,401.737 76.829,408.361 68.368,419.509 C63.869,418.321 59.175,417.694 54.376,417.694 C24.393,417.694 0,442.086 0,472.069 C0,476.545 3.629,480.175 8.106,480.175 C12.583,480.175 16.212,476.546 16.212,472.069 C16.212,451.025 33.333,433.905 54.377,433.905 C67.582,433.905 79.669,440.587 86.711,451.78 C89.094,455.568 94.098,456.709 97.888,454.325 C101.677,451.941 102.816,446.937 100.432,443.148 C96.099,436.262 90.421,430.581 83.856,426.342 C89.187,421.023 96.465,417.947 104.114,417.947 C116.278,417.947 127.146,425.645 131.156,437.103 C132.016,439.558 133.941,441.331 136.23,442.1 C123.192,448.959 114.276,462.636 114.276,478.363 C114.276,482.839 117.905,486.469 122.382,486.469 C126.859,486.469 130.488,482.84 130.488,478.363 C130.488,464.72 141.588,453.62 155.232,453.62 C168.876,453.62 179.977,464.72 179.977,478.363 C179.977,482.839 183.606,486.469 188.083,486.469 C192.559,486.469 196.189,482.84 196.189,478.363 C196.184,455.781 177.811,437.41 155.229,437.41 Z" id="Path"></path>
        </g>
    </g>
</svg>