<?xml version="1.0" encoding="UTF-8"?>
<svg width="422px" height="422px" viewBox="0 0 422 422" version="1.1" xmlns="http://www.w3.org/2000/svg" xmlns:xlink="http://www.w3.org/1999/xlink">
    <!-- Generator: Sketch 63.1 (92452) - https://sketch.com -->
    <title>target</title>
    <desc>Created with Sketch.</desc>
    <g id="Page-1" stroke="none" stroke-width="1" fill="none" fill-rule="evenodd">
        <g id="target" fill="#FFFFFF" fill-rule="nonzero">
            <path d="M421.724,62.928 C421.012802,60.4732286 419.018938,58.6020642 416.524,58.048 L373.624,48.356 L363.932,5.456 C363.371056,2.967771 361.500376,0.982018823 359.050021,0.273712832 C356.599665,-0.43459316 353.958009,0.246812077 352.156,2.052 L302.816,51.4 C216.411515,-0.7387427 104.684887,19.8054007 42.4795093,99.2703269 C-19.7258684,178.735253 -12.8441482,292.12636 58.5147459,363.485254 C129.87364,434.844148 243.264747,441.725868 322.729673,379.520491 C402.194599,317.315113 422.738743,205.588485 370.6,119.184 L419.96,69.824 C421.75928,68.0177162 422.43493,65.3763968 421.724,62.928 L421.724,62.928 Z M385.300098,222.348 C385.288405,306.372117 328.836335,379.910234 247.669234,401.634736 C166.502133,423.359238 80.8638558,387.851826 38.8821749,315.067275 C-3.0995059,242.282725 9.04604429,150.374203 68.4931595,90.99329 C127.940275,31.6123773 219.862273,19.5692445 292.6,61.632 L269.94,84.292 C269.745314,84.5136264 269.564949,84.7474335 269.4,84.992 C201.807677,50.5801259 119.227792,70.4125988 74.6348033,131.767017 C30.0418145,193.121435 36.6689876,277.790466 90.2650342,331.45948 C143.861081,385.128494 228.521018,391.870853 289.936048,347.361379 C351.351078,302.851904 371.295883,220.299078 336.976,152.66 C337.233312,152.478266 337.477883,152.279134 337.708,152.064 L360.368,129.404 C376.731886,157.643631 385.333556,189.709795 385.300098,222.348 L385.300098,222.348 Z M320.364,151.492 C355.928783,212.204893 340.848536,289.887382 285.151001,332.88382 C229.453466,375.880258 150.483972,370.800693 100.753972,321.022825 C51.0239709,271.244957 46.0203827,192.270613 89.0703864,136.61447 C132.12039,80.9583266 209.817352,65.9528234 270.496,101.576 L277.868,134.232 L270.796,141.304 C226.954838,102.805616 160.475093,106.038893 120.576788,148.60999 C80.6784831,191.181086 81.7566193,257.730679 123.01297,298.98703 C164.269321,340.243381 230.818914,341.321517 273.39001,301.423212 C315.961107,261.524907 319.194384,195.045162 280.696,151.204 L287.768,144.132 L320.364,151.492 Z M229.752209,222.348 C229.802875,236.110999 220.54547,248.168948 207.236429,251.674967 C193.927389,255.180985 179.930834,249.248858 173.194446,237.247033 C166.458059,225.245208 168.684593,210.207381 178.609753,200.672501 C188.534913,191.137622 203.64992,189.515818 215.372,196.728 L194.7,217.4 C192.880663,219.15789 192.151399,221.760659 192.792502,224.207934 C193.433605,226.655208 195.345304,228.566135 197.792838,229.206249 C200.240371,229.846363 202.842846,229.116048 204.6,227.296 L225.272,206.624 C228.198743,211.346634 229.75021,216.792003 229.752209,222.348 L229.752209,222.348 Z M225.448,186.652 C206.745133,173.10482 180.771323,176.20624 165.784019,193.776216 C150.796716,211.346193 151.829168,237.484128 168.155647,253.817206 C184.482125,270.150283 210.619641,271.193298 228.195673,256.213097 C245.771705,241.232895 248.883621,215.260341 235.344,196.552 L270.776,161.12 C303.77044,199.451947 300.539503,257.014593 263.462749,291.41351 C226.385995,325.812428 168.74296,324.727182 132.987279,288.957048 C97.2315976,253.186914 96.1696469,195.543446 130.583545,158.480596 C164.997443,121.417746 222.56139,118.210072 260.88,151.22 L225.448,186.652 Z M356.824,113.148 L330.552,139.416 L326.612,138.528 L326.46,138.492 L291.4,130.6 L282.564,91.468 L353.092,20.928 L360.96,55.752 C361.55541,58.3869387 363.613061,60.44459 366.248,61.04 L401.072,68.908 L356.824,113.148 Z" id="Shape"></path>
        </g>
    </g>
</svg>