<?xml version="1.0" encoding="UTF-8"?>
<svg width="451px" height="512px" viewBox="0 0 451 512" version="1.1" xmlns="http://www.w3.org/2000/svg" xmlns:xlink="http://www.w3.org/1999/xlink">
    <!-- Generator: Sketch 63.1 (92452) - https://sketch.com -->
    <title>video</title>
    <desc>Created with Sketch.</desc>
    <g id="Page-1" stroke="none" stroke-width="1" fill="none" fill-rule="evenodd">
        <g id="video" fill="#FFFFFF" fill-rule="nonzero">
            <path d="M440.589844,206.675781 L99.417969,206.675781 L427.117188,111.746094 C429.664062,111.007812 431.8125,109.285156 433.09375,106.964844 C434.375,104.640625 434.679688,101.90625 433.941406,99.359375 L416.792969,40.160156 C409.941406,16.515625 387.925781,0 363.253906,0 C358.054688,0 352.875,0.738281 347.851562,2.191406 L40.175781,91.320312 C25.945312,95.441406 14.152344,104.902344 6.960938,117.953125 C-0.226562,131.003906 -1.914062,146.03125 2.207031,160.257812 L18.960938,218.09375 L18.960938,456.347656 C18.960938,487.035156 43.925781,512 74.609375,512 L194.773438,512 C200.296875,512 204.773438,507.523438 204.773438,502 C204.773438,496.476562 200.296875,492 194.773438,492 L74.613281,492 C54.953125,492 38.960938,476.007812 38.960938,456.347656 L38.960938,320.261719 L90.191406,320.261719 L90.214844,320.261719 L90.234375,320.261719 L168.546875,320.261719 L168.570312,320.261719 L168.59375,320.261719 L246.90625,320.261719 L246.929688,320.261719 L246.953125,320.261719 L325.265625,320.261719 L325.289062,320.261719 L325.308594,320.261719 L430.589844,320.261719 L430.589844,456.347656 C430.589844,476.007812 414.597656,492 394.9375,492 L274.773438,492 C269.253906,492 264.773438,496.476562 264.773438,502 C264.773438,507.523438 269.253906,512 274.773438,512 L394.9375,512 C425.625,512 450.589844,487.035156 450.589844,456.347656 L450.589844,216.675781 C450.589844,211.152344 446.113281,206.675781 440.589844,206.675781 Z M264.257812,300.261719 L306.746094,226.675781 L362.007812,226.675781 L319.523438,300.261719 L264.257812,300.261719 Z M185.898438,300.261719 L228.386719,226.675781 L283.648438,226.675781 L241.164062,300.261719 L185.898438,300.261719 Z M107.542969,300.261719 L150.027344,226.675781 L205.292969,226.675781 L162.804688,300.261719 L107.542969,300.261719 Z M144.722656,170.804688 L73.574219,102.46875 L126.882812,87.027344 C127.257812,87.574219 127.695312,88.089844 128.195312,88.570312 L199.34375,156.90625 L146.035156,172.347656 C145.660156,171.800781 145.21875,171.28125 144.722656,170.804688 Z M278.722656,44.964844 L349.871094,113.300781 L296.5625,128.742188 C296.1875,128.195312 295.75,127.675781 295.25,127.199219 L224.101562,58.863281 L277.410156,43.421875 C277.785156,43.96875 278.222656,44.484375 278.722656,44.964844 Z M203.457031,66.769531 L274.605469,135.101562 L221.296875,150.546875 C220.921875,150 220.484375,149.480469 219.984375,149.003906 L148.835938,80.667969 L202.144531,65.226562 C202.523438,65.769531 202.960938,66.289062 203.457031,66.769531 Z M353.417969,21.402344 C356.628906,20.472656 359.9375,20 363.253906,20 C379.078125,20 393.191406,30.578125 397.582031,45.726562 L411.949219,95.316406 L371.828125,106.9375 C371.449219,106.390625 371.011719,105.875 370.511719,105.394531 L299.367188,37.0625 L353.417969,21.402344 Z M24.480469,127.601562 C29.089844,119.230469 36.640625,113.167969 45.742188,110.53125 L51.617188,108.828125 C51.996094,109.375 52.433594,109.894531 52.929688,110.371094 L124.078125,178.707031 L35.785156,204.285156 L21.417969,154.695312 C18.78125,145.597656 19.871094,135.976562 24.480469,127.601562 Z M38.960938,226.675781 L126.933594,226.675781 L84.449219,300.261719 L38.960938,300.261719 L38.960938,226.675781 Z M342.617188,300.261719 L385.101562,226.675781 L430.589844,226.675781 L430.589844,300.261719 L342.617188,300.261719 Z" id="Shape"></path>
            <path d="M303.921875,405.113281 C303.921875,401.539062 302.015625,398.238281 298.921875,396.453125 L211.066406,345.730469 C207.972656,343.945312 204.160156,343.945312 201.066406,345.730469 C197.972656,347.515625 196.066406,350.816406 196.066406,354.390625 L196.066406,455.835938 C196.066406,459.40625 197.972656,462.707031 201.066406,464.492188 C202.613281,465.386719 204.339844,465.835938 206.066406,465.835938 C207.792969,465.835938 209.519531,465.386719 211.066406,464.492188 L298.921875,413.773438 C302.015625,411.988281 303.921875,408.6875 303.921875,405.113281 Z M216.066406,438.515625 L216.066406,371.710938 L273.921875,405.113281 L216.066406,438.515625 Z" id="Shape"></path>
            <path d="M234.773438,492 C229.265625,492 224.773438,496.492188 224.773438,502 C224.773438,507.507812 229.265625,512 234.773438,512 C240.285156,512 244.773438,507.507812 244.773438,502 C244.773438,496.492188 240.285156,492 234.773438,492 Z" id="Path"></path>
        </g>
    </g>
</svg>